<svg width="64" height="64" viewBox="0 0 64 64" fill="none" xmlns="http://www.w3.org/2000/svg">
<path d="M55 2H9C8.73478 2 8.48043 2.10536 8.29289 2.29289C8.10536 2.48043 8 2.73478 8 3V61C8 61.2652 8.10536 61.5196 8.29289 61.7071C8.48043 61.8946 8.73478 62 9 62H55C55.2652 62 55.5196 61.8946 55.7071 61.7071C55.8946 61.5196 56 61.2652 56 61V3C56 2.73478 55.8946 2.48043 55.7071 2.29289C55.5196 2.10536 55.2652 2 55 2V2ZM10 4H12V5H14V4H16V5H18V4H20V5H22V4H54V7H10V4ZM10 60V9H54V60H10Z" fill="#FFC107"></path>
<path d="M52 10H26C25.7348 10 25.4804 10.1054 25.2929 10.2929C25.1054 10.4804 25 10.7348 25 11V41C25 41.2652 25.1054 41.5196 25.2929 41.7071C25.4804 41.8946 25.7348 42 26 42H52C52.2652 42 52.5196 41.8946 52.7071 41.7071C52.8946 41.5196 53 41.2652 53 41V11C53 10.7348 52.8946 10.4804 52.7071 10.2929C52.5196 10.1054 52.2652 10 52 10ZM51 40H27V12H51V40Z" fill="#FFC107"></path>
<path d="M29 19H49C49.2652 19 49.5196 18.8946 49.7071 18.7071C49.8946 18.5196 50 18.2652 50 18V14C50 13.7348 49.8946 13.4804 49.7071 13.2929C49.5196 13.1054 49.2652 13 49 13H29C28.7348 13 28.4804 13.1054 28.2929 13.2929C28.1054 13.4804 28 13.7348 28 14V18C28 18.2652 28.1054 18.5196 28.2929 18.7071C28.4804 18.8946 28.7348 19 29 19ZM30 15H48V17H30V15Z" fill="#FFC107"></path>
<path d="M29 26H49C49.2652 26 49.5196 25.8946 49.7071 25.7071C49.8946 25.5196 50 25.2652 50 25V21C50 20.7348 49.8946 20.4804 49.7071 20.2929C49.5196 20.1054 49.2652 20 49 20H29C28.7348 20 28.4804 20.1054 28.2929 20.2929C28.1054 20.4804 28 20.7348 28 21V25C28 25.2652 28.1054 25.5196 28.2929 25.7071C28.4804 25.8946 28.7348 26 29 26ZM30 22H48V24H30V22Z" fill="#FFC107"></path>
<path d="M29 33H49C49.2652 33 49.5196 32.8946 49.7071 32.7071C49.8946 32.5196 50 32.2652 50 32V28C50 27.7348 49.8946 27.4804 49.7071 27.2929C49.5196 27.1054 49.2652 27 49 27H29C28.7348 27 28.4804 27.1054 28.2929 27.2929C28.1054 27.4804 28 27.7348 28 28V32C28 32.2652 28.1054 32.5196 28.2929 32.7071C28.4804 32.8946 28.7348 33 29 33ZM30 29H48V31H30V29Z" fill="#FFC107"></path>
<path d="M44 34H34C33.7348 34 33.4804 34.1054 33.2929 34.2929C33.1054 34.4804 33 34.7348 33 35V38C33 38.2652 33.1054 38.5196 33.2929 38.7071C33.4804 38.8946 33.7348 39 34 39H44C44.2652 39 44.5196 38.8946 44.7071 38.7071C44.8946 38.5196 45 38.2652 45 38V35C45 34.7348 44.8946 34.4804 44.7071 34.2929C44.5196 34.1054 44.2652 34 44 34ZM43 37H35V36H43V37Z" fill="#FFC107"></path>
<path d="M23 11H12V13H23V11Z" fill="#FFC107"></path>
<path d="M23 15H12V17H23V15Z" fill="#FFC107"></path>
<path d="M20 19H12V21H20V19Z" fill="#FFC107"></path>
<path d="M15 23H12V25H15V23Z" fill="#FFC107"></path>
<path d="M23 30H12V32H23V30Z" fill="#FFC107"></path>
<path d="M21 34H14V36H21V34Z" fill="#FFC107"></path>
<path d="M21 38H14V40H21V38Z" fill="#FFC107"></path>
<path d="M23 44H13C12.7348 44 12.4804 44.1054 12.2929 44.2929C12.1054 44.4804 12 44.7348 12 45V55C12 55.2652 12.1054 55.5196 12.2929 55.7071C12.4804 55.8946 12.7348 56 13 56H23C23.2652 56 23.5196 55.8946 23.7071 55.7071C23.8946 55.5196 24 55.2652 24 55V45C24 44.7348 23.8946 44.4804 23.7071 44.2929C23.5196 44.1054 23.2652 44 23 44ZM22 54H14V46H22V54Z" fill="#FFC107"></path>
<path d="M37 44H27C26.7348 44 26.4804 44.1054 26.2929 44.2929C26.1054 44.4804 26 44.7348 26 45V55C26 55.2652 26.1054 55.5196 26.2929 55.7071C26.4804 55.8946 26.7348 56 27 56H37C37.2652 56 37.5196 55.8946 37.7071 55.7071C37.8946 55.5196 38 55.2652 38 55V45C38 44.7348 37.8946 44.4804 37.7071 44.2929C37.5196 44.1054 37.2652 44 37 44ZM36 54H28V46H36V54Z" fill="#FFC107"></path>
<path d="M51 44H41C40.7348 44 40.4804 44.1054 40.2929 44.2929C40.1054 44.4804 40 44.7348 40 45V55C40 55.2652 40.1054 55.5196 40.2929 55.7071C40.4804 55.8946 40.7348 56 41 56H51C51.2652 56 51.5196 55.8946 51.7071 55.7071C51.8946 55.5196 52 55.2652 52 55V45C52 44.7348 51.8946 44.4804 51.7071 44.2929C51.5196 44.1054 51.2652 44 51 44ZM50 54H42V46H50V54Z" fill="#FFC107"></path>
<path d="M22 57H14V59H22V57Z" fill="#FFC107"></path>
<path d="M36 57H28V59H36V57Z" fill="#FFC107"></path>
<path d="M50 57H42V59H50V57Z" fill="#FFC107"></path>
</svg>