<?xml version="1.0" encoding="utf-8"?>
<!-- Generator: Adobe Illustrator 25.4.1, SVG Export Plug-In . SVG Version: 6.00 Build 0)  -->
<svg version="1.1" id="Capa_1" xmlns="http://www.w3.org/2000/svg" xmlns:xlink="http://www.w3.org/1999/xlink" x="0px" y="0px"
	 viewBox="0 0 200 200" style="enable-background:new 0 0 200 200;" xml:space="preserve">
<style type="text/css">
	.st0{fill-rule:evenodd;clip-rule:evenodd;fill:#FFFFFF;}
	.st1{fill-rule:evenodd;clip-rule:evenodd;}
</style>
<g>
	<g>
		<g>
			<path class="st0" d="M143.6,166.3c2.1-3.1,18.6-27.7,22.4-47c2.2-11.4,6.9-20.9,10.3-26.9c4.4-7.5,8.7-12.6,11.2-14.6
				c1.4-1.2,1.7-2.6,1.1-4.3c-1.2-3.1-6.1-6.5-11.5-6.5c-1.2,0-2.4,0.2-3.5,0.5c-1.8,0.6-3.4,1-4.8,1.4c-0.6,0.1-1.1,0.3-1.7,0.5
				c0.8-5.1,2.4-11.5,5.6-16.1c0.7-1,0.5-2.4-0.5-3.1c-1-0.7-2.4-0.5-3.1,0.5c-3.3,4.6-5.1,10.7-6,15.9c-1.1-8.8-1.9-21.3,0.4-34
				c0.2-1.2-0.6-2.4-1.8-2.6c-1.2-0.2-2.4,0.6-2.6,1.8c-3,16.9-1,33.1,0.6,41.7c-0.6,0.8-1.3,1.7-1.9,2.8c-0.7,1.3-1.8,3.7-3.2,6.6
				c-2.4,5.2-5.7,12.3-9.7,19.8c-5.7-22.9-26.5-40-51.2-40c-29.1,0-52.7,23.7-52.7,52.7c0,11.5,3.6,22.4,10.5,31.6
				c3.5,4.7,7.7,8.7,12.4,11.9c-4.9,2.2-9.3,4.6-12.8,7.4c-12.9,0.3-29.4,0.7-51.2,1.2c133.3,3,66.7,3,200,0
				C175.1,167.1,157.2,166.7,143.6,166.3 M89.8,105.5c0.8-0.3,1.7,0.1,2.1,0.9c0.3,0.8-0.1,1.7-0.9,2.1c-0.8,0.3-1.8-0.1-2.1-0.9
				C88.6,106.7,89,105.8,89.8,105.5z M82.9,114.1c0.1-0.9,1-1.5,1.8-1.3c0.9,0.1,1.5,1,1.3,1.8c-0.1,0.9-1,1.5-1.8,1.3
				C83.3,115.8,82.7,114.9,82.9,114.1z M86.9,124.4c-0.7-0.5-0.8-1.6-0.2-2.3c0.5-0.7,1.6-0.8,2.2-0.2c0.7,0.5,0.8,1.6,0.2,2.2
				C88.5,124.8,87.5,124.9,86.9,124.4z M97.8,126.1c-0.8,0.3-1.8-0.1-2.1-0.9c-0.3-0.8,0.1-1.8,0.9-2.1c0.8-0.3,1.8,0.1,2.1,0.9
				C99,124.8,98.6,125.8,97.8,126.1z M104.7,117.5c-0.1,0.9-1,1.5-1.8,1.3c-0.9-0.1-1.5-1-1.3-1.8c0.1-0.9,1-1.5,1.8-1.3
				C104.3,115.8,104.8,116.6,104.7,117.5z M100.7,107.2c0.7,0.6,0.8,1.6,0.2,2.3c-0.5,0.7-1.6,0.8-2.3,0.2c-0.7-0.6-0.8-1.6-0.2-2.3
				C99,106.7,100,106.6,100.7,107.2z M57.5,103.8c2.2-6.6,9.3-10.2,15.9-8c6.6,2.2,10.2,9.3,8,15.9c-2.2,6.6-9.3,10.2-15.9,8
				C58.9,117.5,55.3,110.4,57.5,103.8z M70.9,146.4c-5.6-4.2-6.7-12.1-2.6-17.6c4.2-5.6,12.1-6.7,17.6-2.6
				c5.6,4.2,6.7,12.1,2.6,17.6C84.4,149.4,76.5,150.6,70.9,146.4z M130.2,104.1c2.1,6.6-1.5,13.7-8.2,15.8
				c-6.6,2.1-13.7-1.5-15.8-8.2c-2.1-6.6,1.5-13.7,8.1-15.8C121,93.8,128.1,97.5,130.2,104.1z M93.8,77.5c7,0,12.6,5.6,12.6,12.6
				c0,7-5.6,12.6-12.6,12.6c-7,0-12.6-5.6-12.6-12.6C81.2,83.2,86.8,77.5,93.8,77.5z M93.8,109.9c3.3,0,5.9,2.6,5.9,5.9
				c0,3.3-2.6,5.9-5.9,5.9c-3.3,0-5.9-2.6-5.9-5.9C87.9,112.5,90.5,109.9,93.8,109.9z M121,135.3c-5.7,4.2-13.2,7.6-21.2,10.7
				c-0.6-0.6-1.1-1.2-1.6-1.9c-4-5.7-2.6-13.6,3.1-17.6c5.7-4,13.6-2.6,17.5,3.1C120,131.3,120.7,133.3,121,135.3z M45.5,115.6
				c0-26.6,21.7-48.3,48.3-48.3c24.4,0,44.6,18.1,47.8,41.6c-1.5,2.5-3,5.1-4.6,7.6c0-0.3,0-0.6,0-0.9c0-23.9-19.4-43.3-43.3-43.3
				c-23.9,0-43.3,19.4-43.3,43.3c0,17.2,10.1,32.1,24.7,39.1c-2.1,0.8-4.2,1.5-6.2,2.3C54.7,148.4,45.5,132.7,45.5,115.6z"/>
		</g>
	</g>
</g>
</svg>
